<?xml version="1.0" encoding="UTF-8" standalone="no"?>
<!-- Created with Inkscape (http://www.inkscape.org/) -->

<svg
   width="151.28999mm"
   height="166.26253mm"
   viewBox="0 0 151.28999 166.26253"
   version="1.1"
   id="svg5"
   xml:space="preserve"
   inkscape:version="1.2.1 (9c6d41e410, 2022-07-14)"
   inkscape:export-filename="tcs_icon_logo.svg"
   inkscape:export-xdpi="15.949502"
   inkscape:export-ydpi="15.949502"
   sodipodi:docname="tcs_icon_logo.svg"
   xmlns:inkscape="http://www.inkscape.org/namespaces/inkscape"
   xmlns:sodipodi="http://sodipodi.sourceforge.net/DTD/sodipodi-0.dtd"
   xmlns="http://www.w3.org/2000/svg"
   xmlns:svg="http://www.w3.org/2000/svg"><sodipodi:namedview
     id="namedview7"
     pagecolor="#ffffff"
     bordercolor="#000000"
     borderopacity="0.25"
     inkscape:showpageshadow="2"
     inkscape:pageopacity="0.0"
     inkscape:pagecheckerboard="0"
     inkscape:deskcolor="#d1d1d1"
     inkscape:document-units="mm"
     showgrid="false"
     inkscape:zoom="0.70710678"
     inkscape:cx="276.47875"
     inkscape:cy="397.39401"
     inkscape:window-width="1920"
     inkscape:window-height="1017"
     inkscape:window-x="-8"
     inkscape:window-y="-8"
     inkscape:window-maximized="1"
     inkscape:current-layer="g297" /><defs
     id="defs2"><linearGradient
       id="linearGradient1887"
       inkscape:swatch="solid"><stop
         style="stop-color:#000000;stop-opacity:1;"
         offset="0"
         id="stop1885" /></linearGradient></defs><g
     id="g302"
     style="display:inline"
     transform="translate(-32.547367,-71.245947)"
     inkscape:label="Colourz"><path
       id="path1150"
       style="display:inline;fill:#4dcaf1;fill-opacity:1;stroke-width:0.264583;image-rendering:auto"
       inkscape:label="Light  Blue"
       inkscape:transform-center-x="4.6733856e-06"
       d="m 89.030593,101.83726 a 11.456794,11.456794 0 0 0 -5.686278,1.52552 l -20.426128,11.79314 a 11.456794,11.456794 0 0 0 -5.728533,9.92175 v 23.58606 a 11.456794,11.456794 0 0 0 1.532487,5.70567 l 30.308452,-17.49859 z"
       transform="matrix(2.3725826,0,0,2.3725826,-103.13981,-170.37101)" /><path
       id="path4274"
       style="display:inline;fill:#ff007f;fill-opacity:1;stroke-width:0.264583;image-rendering:auto"
       inkscape:label="Pink"
       inkscape:transform-center-x="4.6733856e-06"
       d="M 119.41005,154.41034 89.030593,136.87081 58.722141,154.3694 a 11.456794,11.456794 0 0 0 4.196046,4.2163 l 20.426128,11.79314 a 11.456794,11.456794 0 0 0 11.456631,0 L 115.22729,158.5857 a 11.456794,11.456794 0 0 0 4.18276,-4.17536 z"
       transform="matrix(2.3725826,0,0,2.3725826,-103.13981,-170.37101)" /><path
       id="path4279"
       style="display:inline;fill:#004fff;fill-opacity:1;stroke-width:0.264583;image-rendering:auto"
       inkscape:label="Dark Blue"
       inkscape:transform-center-x="4.6733856e-06"
       d="m 89.030593,101.83726 v 35.03355 l 30.379457,17.53953 a 11.456794,11.456794 0 0 0 1.54556,-5.74661 v -23.58606 a 11.456794,11.456794 0 0 0 -5.72832,-9.92175 L 94.800946,103.36278 a 11.456794,11.456794 0 0 0 -5.770353,-1.52552 z"
       transform="matrix(2.3725826,0,0,2.3725826,-103.13981,-170.37101)" /></g><g
     id="g297"
     style="display:inline"
     transform="translate(-32.547367,-71.245947)"
     inkscape:label="White Ring"><path
       id="path314"
       style="display:inline;fill:#ffffff;fill-opacity:1;stroke:#ffffff;stroke-width:0.0112467;stroke-dasharray:none;stroke-opacity:1"
       inkscape:label="White Combined"
       inkscape:transform-center-y="-2.9591173e-06"
       d="M 88.527467 101.84087 A 11.456794 11.456794 0 0 0 83.344127 103.36301 L 62.918217 115.15593 A 11.456794 11.456794 0 0 0 57.189722 125.07771 L 57.189722 148.66383 A 11.456794 11.456794 0 0 0 62.918217 158.5859 L 83.344127 170.37882 A 11.456794 11.456794 0 0 0 89.016538 171.90096 A 11.456794 11.456794 0 0 0 94.801118 170.37882 L 115.22732 158.5859 A 11.456794 11.456794 0 0 0 120.95552 148.66383 L 120.95552 125.07771 A 11.456794 11.456794 0 0 0 115.22732 115.15593 L 94.801118 103.36301 A 11.456794 11.456794 0 0 0 89.016538 101.84087 A 11.456794 11.456794 0 0 0 88.527467 101.84087 z M 88.629175 113.55184 L 88.629756 113.55184 A 7.6280833 7.6280833 0 0 1 89.016538 113.55184 A 7.6280833 7.6280833 0 0 1 89.51607 113.55184 A 7.6280833 7.6280833 0 0 1 90.397154 113.65471 A 7.6280833 7.6280833 0 0 1 91.260511 113.85929 A 7.6280833 7.6280833 0 0 1 92.093937 114.16267 A 7.6280833 7.6280833 0 0 1 92.88668 114.56079 L 106.48681 122.41266 A 7.6280833 7.6280833 0 0 1 107.22782 122.90028 A 7.6280833 7.6280833 0 0 1 107.90723 123.47043 A 7.6280833 7.6280833 0 0 1 108.51603 124.11555 A 7.6280833 7.6280833 0 0 1 109.04579 124.82721 A 7.6280833 7.6280833 0 0 1 109.48923 125.59555 A 7.6280833 7.6280833 0 0 1 109.84056 126.41008 A 7.6280833 7.6280833 0 0 1 110.09512 127.25978 A 7.6280833 7.6280833 0 0 1 110.24914 128.13331 A 7.6280833 7.6280833 0 0 1 110.30086 129.01904 L 110.30086 144.72279 A 7.6280833 7.6280833 0 0 1 110.29883 144.90441 A 7.6280833 7.6280833 0 0 1 110.29273 145.08574 A 7.6280833 7.6280833 0 0 1 110.28198 145.26707 A 7.6280833 7.6280833 0 0 1 110.26686 145.44782 A 7.6280833 7.6280833 0 0 1 110.24739 145.62857 A 7.6280833 7.6280833 0 0 1 110.22357 145.80845 A 7.6280833 7.6280833 0 0 1 110.19567 145.98775 A 7.6280833 7.6280833 0 0 1 110.16341 146.16646 A 7.6280833 7.6280833 0 0 1 110.12709 146.34431 A 7.6280833 7.6280833 0 0 1 110.08641 146.52128 A 7.6280833 7.6280833 0 0 1 110.04136 146.69709 A 7.6280833 7.6280833 0 0 1 109.99225 146.87203 A 7.6280833 7.6280833 0 0 1 109.93907 147.04551 A 7.6280833 7.6280833 0 0 1 109.88183 147.21783 A 7.6280833 7.6280833 0 0 1 109.82022 147.3887 A 7.6280833 7.6280833 0 0 1 109.75484 147.55783 A 7.6280833 7.6280833 0 0 1 109.68538 147.7255 A 7.6280833 7.6280833 0 0 1 109.61186 147.89172 A 7.6280833 7.6280833 0 0 1 109.53457 148.05591 A 7.6280833 7.6280833 0 0 1 109.4532 148.21835 A 7.6280833 7.6280833 0 0 1 109.36835 148.37847 A 7.6280833 7.6280833 0 0 1 109.27942 148.53684 A 7.6280833 7.6280833 0 0 1 109.18672 148.69289 A 7.6280833 7.6280833 0 0 1 109.09025 148.84691 A 7.6280833 7.6280833 0 0 1 108.99028 148.99831 A 7.6280833 7.6280833 0 0 1 108.88683 149.14767 A 7.6280833 7.6280833 0 0 1 108.77989 149.29413 A 7.6280833 7.6280833 0 0 1 108.66917 149.43827 A 7.6280833 7.6280833 0 0 1 108.55526 149.5795 A 7.6280833 7.6280833 0 0 1 108.43815 149.71811 A 7.6280833 7.6280833 0 0 1 108.31755 149.85382 A 7.6280833 7.6280833 0 0 1 108.19405 149.98691 A 7.6280833 7.6280833 0 0 1 108.06706 150.11681 A 7.6280833 7.6280833 0 0 1 107.93717 150.24351 A 7.6280833 7.6280833 0 0 1 107.80436 150.3673 A 7.6280833 7.6280833 0 0 1 107.66866 150.4879 A 7.6280833 7.6280833 0 0 1 107.53004 150.60501 A 7.6280833 7.6280833 0 0 1 107.38852 150.71892 A 7.6280833 7.6280833 0 0 1 107.24468 150.82935 A 7.6280833 7.6280833 0 0 1 107.09793 150.93658 A 7.6280833 7.6280833 0 0 1 106.94885 151.04003 A 7.6280833 7.6280833 0 0 1 106.79716 151.13999 A 7.6280833 7.6280833 0 0 1 106.64344 151.23618 A 7.6280833 7.6280833 0 0 1 106.48739 151.32888 L 92.887261 159.18104 A 7.6280833 7.6280833 0 0 1 92.094518 159.57916 A 7.6280833 7.6280833 0 0 1 91.261092 159.88254 A 7.6280833 7.6280833 0 0 1 90.397735 160.08712 A 7.6280833 7.6280833 0 0 1 89.516651 160.18999 A 7.6280833 7.6280833 0 0 1 89.016538 160.18999 A 7.6280833 7.6280833 0 0 1 88.629756 160.18999 A 7.6280833 7.6280833 0 0 1 87.748673 160.08712 A 7.6280833 7.6280833 0 0 1 86.885606 159.88254 A 7.6280833 7.6280833 0 0 1 86.051889 159.57916 A 7.6280833 7.6280833 0 0 1 85.259147 159.18104 L 71.65931 151.32888 A 7.6280833 7.6280833 0 0 1 70.918002 150.84155 A 7.6280833 7.6280833 0 0 1 70.238591 150.2714 A 7.6280833 7.6280833 0 0 1 69.629795 149.62599 A 7.6280833 7.6280833 0 0 1 69.100041 148.91462 A 7.6280833 7.6280833 0 0 1 68.656593 148.14628 A 7.6280833 7.6280833 0 0 1 68.305264 147.33175 A 7.6280833 7.6280833 0 0 1 68.050703 146.48205 A 7.6280833 7.6280833 0 0 1 67.896688 145.60852 A 7.6280833 7.6280833 0 0 1 67.845253 144.72279 L 67.845253 129.01904 A 7.6280833 7.6280833 0 0 1 67.896688 128.13331 A 7.6280833 7.6280833 0 0 1 68.050703 127.25978 A 7.6280833 7.6280833 0 0 1 68.305264 126.41008 A 7.6280833 7.6280833 0 0 1 68.656593 125.59555 A 7.6280833 7.6280833 0 0 1 69.100041 124.82721 A 7.6280833 7.6280833 0 0 1 69.629795 124.11555 A 7.6280833 7.6280833 0 0 1 70.238591 123.47043 A 7.6280833 7.6280833 0 0 1 70.918002 122.90028 A 7.6280833 7.6280833 0 0 1 71.65931 122.41266 L 85.259147 114.56079 A 7.6280833 7.6280833 0 0 1 86.051889 114.16267 A 7.6280833 7.6280833 0 0 1 86.885606 113.85929 A 7.6280833 7.6280833 0 0 1 87.748673 113.65471 A 7.6280833 7.6280833 0 0 1 88.629175 113.55184 z "
       transform="matrix(1.7782985,0,0,1.7782985,-50.205349,-89.030887)" /><path
       id="path5028"
       style="display:inline;fill:#d9d9d9;fill-opacity:1;stroke:#d9d9d9;stroke-width:0.0112467;stroke-dasharray:none;stroke-opacity:1"
       inkscape:label="Gray"
       inkscape:transform-center-y="-2.9591173e-06"
       d="m 89.016538,101.84078 v 11.71097 a 7.6280833,7.6280833 0 0 1 0.499532,0 7.6280833,7.6280833 0 0 1 0.881084,0.10287 7.6280833,7.6280833 0 0 1 0.863357,0.20458 7.6280833,7.6280833 0 0 1 0.833426,0.30338 7.6280833,7.6280833 0 0 1 0.792743,0.39811 l 13.60013,7.85188 a 7.6280833,7.6280833 0 0 1 0.74101,0.48761 7.6280833,7.6280833 0 0 1 0.67942,0.57015 7.6280833,7.6280833 0 0 1 0.60879,0.64512 7.6280833,7.6280833 0 0 1 0.52976,0.71167 7.6280833,7.6280833 0 0 1 0.44344,0.76833 7.6280833,7.6280833 0 0 1 0.35133,0.81454 7.6280833,7.6280833 0 0 1 0.25456,0.8497 7.6280833,7.6280833 0 0 1 0.15402,0.87353 7.6280833,7.6280833 0 0 1 0.0517,0.88573 v 15.70374 a 7.6280833,7.6280833 0 0 1 -0.002,0.18162 7.6280833,7.6280833 0 0 1 -0.006,0.18134 7.6280833,7.6280833 0 0 1 -0.0108,0.18133 7.6280833,7.6280833 0 0 1 -0.0151,0.18075 7.6280833,7.6280833 0 0 1 -0.0195,0.18075 7.6280833,7.6280833 0 0 1 -0.0238,0.17987 7.6280833,7.6280833 0 0 1 -0.0279,0.1793 7.6280833,7.6280833 0 0 1 -0.0323,0.17872 7.6280833,7.6280833 0 0 1 -0.0363,0.17784 7.6280833,7.6280833 0 0 1 -0.0407,0.17697 7.6280833,7.6280833 0 0 1 -0.0451,0.17581 7.6280833,7.6280833 0 0 1 -0.0491,0.17494 7.6280833,7.6280833 0 0 1 -0.0532,0.17349 7.6280833,7.6280833 0 0 1 -0.0572,0.17232 7.6280833,7.6280833 0 0 1 -0.0616,0.17087 7.6280833,7.6280833 0 0 1 -0.0654,0.16913 7.6280833,7.6280833 0 0 1 -0.0695,0.16767 7.6280833,7.6280833 0 0 1 -0.0735,0.16622 7.6280833,7.6280833 0 0 1 -0.0773,0.16419 7.6280833,7.6280833 0 0 1 -0.0814,0.16244 7.6280833,7.6280833 0 0 1 -0.0848,0.16012 7.6280833,7.6280833 0 0 1 -0.0889,0.15837 7.6280833,7.6280833 0 0 1 -0.0927,0.15605 7.6280833,7.6280833 0 0 1 -0.0965,0.15401 7.6280833,7.6280833 0 0 1 -0.1,0.1514 7.6280833,7.6280833 0 0 1 -0.10345,0.14937 7.6280833,7.6280833 0 0 1 -0.10694,0.14646 7.6280833,7.6280833 0 0 1 -0.11072,0.14413 7.6280833,7.6280833 0 0 1 -0.11391,0.14123 7.6280833,7.6280833 0 0 1 -0.11711,0.13862 7.6280833,7.6280833 0 0 1 -0.1206,0.13571 7.6280833,7.6280833 0 0 1 -0.1235,0.13309 7.6280833,7.6280833 0 0 1 -0.12699,0.12989 7.6280833,7.6280833 0 0 1 -0.12989,0.1267 7.6280833,7.6280833 0 0 1 -0.13281,0.1238 7.6280833,7.6280833 0 0 1 -0.1357,0.12059 7.6280833,7.6280833 0 0 1 -0.13862,0.11711 7.6280833,7.6280833 0 0 1 -0.14152,0.11392 7.6280833,7.6280833 0 0 1 -0.14384,0.11042 7.6280833,7.6280833 0 0 1 -0.14675,0.10723 7.6280833,7.6280833 0 0 1 -0.14908,0.10345 7.6280833,7.6280833 0 0 1 -0.15169,0.1 7.6280833,7.6280833 0 0 1 -0.15372,0.0962 7.6280833,7.6280833 0 0 1 -0.15605,0.0927 L 92.887221,159.181 a 7.6280833,7.6280833 0 0 1 -0.792743,0.39811 7.6280833,7.6280833 0 0 1 -0.833426,0.30338 7.6280833,7.6280833 0 0 1 -0.863357,0.20458 7.6280833,7.6280833 0 0 1 -0.881083,0.10287 7.6280833,7.6280833 0 0 1 -0.500114,0 v 11.71097 a 11.456794,11.456794 0 0 0 5.78458,-1.52213 l 20.426202,-11.79292 a 11.456794,11.456794 0 0 0 5.7282,-9.92207 v -23.58613 a 11.456794,11.456794 0 0 0 -5.7282,-9.92178 L 94.801118,103.36291 a 11.456794,11.456794 0 0 0 -5.78458,-1.52213 z"
       transform="matrix(1.7782985,0,0,1.7782985,-50.205349,-89.030884)" /></g></svg>
