<svg width="20" height="20" viewBox="0 0 20 20" fill="none" xmlns="http://www.w3.org/2000/svg">
<path d="M14.9846 11.348C15.4574 11.062 15.8418 10.6499 16.095 10.1576C16.3638 9.64824 16.4983 9.06926 16.4986 8.42066C16.4988 7.77211 16.3643 7.19312 16.095 6.68379C15.8418 6.19145 15.4573 5.77922 14.9846 5.49301C14.5127 5.20898 13.9846 5.06684 13.4 5.06656C12.8155 5.06633 12.2873 5.20848 11.8155 5.49301C11.3425 5.77898 10.958 6.19125 10.705 6.68379C10.4362 7.19262 10.3018 7.7716 10.3018 8.42066C10.3018 9.06977 10.4362 9.64875 10.705 10.1576C10.958 10.6501 11.3425 11.0622 11.8155 11.348C12.2873 11.6325 12.8155 11.7748 13.4 11.7748C13.9846 11.7748 14.5127 11.6325 14.9846 11.348ZM10.6198 13.1376C9.80855 12.682 9.13793 12.0111 8.68164 11.1982C8.21484 10.3747 7.98145 9.44891 7.98145 8.42066C7.98145 7.39246 8.21484 6.46652 8.68164 5.64277C9.13797 4.83004 9.80855 4.15918 10.6198 3.70379C11.4449 3.23434 12.3716 2.99975 13.4 3C14.4284 3.00025 15.3527 3.23485 16.173 3.70379C16.9822 4.16195 17.6522 4.83219 18.1112 5.64277C18.5825 6.46652 18.8183 7.39246 18.8186 8.42066C18.8186 9.44891 17.1733 16.9753 17.1733 16.9753C17.1733 16.9753 11.4453 13.6069 10.6198 13.1364" fill="#15B6C2"/>
<path d="M7.84887 11.6249H3.4778V9.19924H7.08832C7.03859 8.57916 7.05668 7.95545 7.1423 7.33928L7.1468 7.31256H3.4778V5.03635H7.88074C8.5832 3.72325 9.49344 3.08984 9.49344 3.08984H1.2002V13.5714H9.67605C8.77973 13.291 7.84852 11.6249 7.84852 11.6249" fill="#1F2937"/>
</svg>
