<svg viewBox="0 0 36 36" fill="none" xmlns="http://www.w3.org/2000/svg">
<path d="M26.9723 20.4264C27.8235 19.9117 28.5154 19.1698 28.9712 18.2837C29.455 17.3669 29.6971 16.3247 29.6976 15.1572C29.698 13.9898 29.4559 12.9476 28.9712 12.0308C28.5153 11.1446 27.8233 10.4026 26.9723 9.88743C26.123 9.37619 25.1723 9.12032 24.1201 9.11983C23.0679 9.11941 22.1172 9.37527 21.2679 9.88743C20.4166 10.4022 19.7246 11.1443 19.2691 12.0308C18.7853 12.9467 18.5433 13.9889 18.5433 15.1572C18.5433 16.3256 18.7853 17.3678 19.2691 18.2837C19.7244 19.1702 20.4165 19.912 21.2679 20.4264C22.1172 20.9385 23.0679 21.1946 24.1201 21.1946C25.1723 21.1946 26.123 20.9385 26.9723 20.4264ZM19.1158 23.6477C17.6555 22.8277 16.4484 21.6199 15.6271 20.1568C14.7868 18.6745 14.3667 17.008 14.3667 15.1572C14.3667 13.3064 14.7868 11.6398 15.6271 10.157C16.4484 8.69409 17.6555 7.48654 19.1158 6.66684C20.601 5.82184 22.2691 5.39957 24.1201 5.40002C25.9711 5.40047 27.635 5.82274 29.1116 6.66684C30.5681 7.49153 31.774 8.69795 32.6003 10.157C33.4487 11.6398 33.8731 13.3064 33.8736 15.1572C33.8736 17.008 30.912 30.5556 30.912 30.5556C30.912 30.5556 20.6017 24.4924 19.1158 23.6456" fill="#15B6C2"/>
<path d="M14.1275 20.925H6.25961V16.5589H12.7585C12.669 15.4428 12.7016 14.3201 12.8557 13.211L12.8638 13.1629H6.25961V9.06571H14.1849C15.4493 6.70213 17.0877 5.562 17.0877 5.562H2.15991V24.4288H17.4165C15.8031 23.9241 14.1269 20.925 14.1269 20.925" fill="#F9FAFB"/>
</svg>
